<?xml version="1.0" standalone="no"?><!DOCTYPE svg PUBLIC "-//W3C//DTD SVG 1.1//EN" "http://www.w3.org/Graphics/SVG/1.1/DTD/svg11.dtd"><svg t="1592910200715" class="icon" viewBox="0 0 1024 1024" version="1.1" xmlns="http://www.w3.org/2000/svg" p-id="43571" xmlns:xlink="http://www.w3.org/1999/xlink" width="200" height="200"><defs><style type="text/css"></style></defs><path d="M763.1 201.8H637.5c0.3-1.6 0.5-3.2 0.5-4.9v-31.6c0-37-30.1-67.1-67.1-67.1H444c-37 0-67.1 30.1-67.1 67.1v31.6c0 1.7 0.2 3.3 0.5 4.9H251.9c-44.4 0-80.5 36.1-80.5 80.5v15.1c0 43.8 35.2 79.4 78.7 80.3-2.3 4.1-3.7 8.7-3.7 13.6v412.3c0 63.4 51.6 115 115 115h292.2c63.4 0 115-51.6 115-115V391.4c0-5-1.4-9.6-3.7-13.6 43.6-1 78.7-36.6 78.7-80.3v-15.1c0-44.5-36.1-80.6-80.5-80.6z m-330.2-4.9v-31.6c0-6 5.1-11.1 11.1-11.1h127c6 0 11.1 5.1 11.1 11.1v31.6c0 1.7 0.2 3.3 0.5 4.9H432.4c0.3-1.6 0.5-3.2 0.5-4.9z m279.7 194.5v412.3c0 32.6-26.5 59.1-59.1 59.1H361.4c-32.6 0-59.1-26.5-59.1-59.1V391.4c0-4.9-1.4-9.5-3.6-13.5h417.5c-2.2 4.1-3.6 8.6-3.6 13.5z m75.1-94c0 13.5-11 24.6-24.6 24.6H251.9c-13.5 0-24.6-11-24.6-24.6v-15.1c0-13.5 11-24.6 24.6-24.6h511.2c13.5 0 24.6 11 24.6 24.6v15.1z" p-id="43572"></path><path d="M386.3 825.5c15.5 0 28-12.5 28-28V443.2c0-15.5-12.5-28-28-28s-28 12.5-28 28v354.3c0 15.5 12.5 28 28 28zM507.5 825.5c15.5 0 28-12.5 28-28V443.2c0-15.5-12.5-28-28-28s-28 12.5-28 28v354.3c0 15.5 12.5 28 28 28zM628.7 825.5c15.4 0 28-12.5 28-28V443.2c0-15.5-12.5-28-28-28-15.4 0-28 12.5-28 28v354.3c0 15.5 12.6 28 28 28z" p-id="43573"></path></svg>