<?xml version="1.0" standalone="no"?><!DOCTYPE svg PUBLIC "-//W3C//DTD SVG 1.1//EN" "http://www.w3.org/Graphics/SVG/1.1/DTD/svg11.dtd"><svg t="1592910060509" class="icon" viewBox="0 0 1024 1024" version="1.1" xmlns="http://www.w3.org/2000/svg" p-id="42059" xmlns:xlink="http://www.w3.org/1999/xlink" width="200" height="200"><defs><style type="text/css"></style></defs><path d="M87.68 561.92C72.32 577.28 64 597.76 64 618.88l0 211.84c0 42.24 21.76 64 64 64l213.76-1.28c21.76 0 42.24-8.96 56.96-23.68l339.84-340.48L428.8 219.52 87.68 561.92zM373.12 821.12c-12.16 12.16-31.36 12.16-42.88 0L136.96 627.84c-12.16-12.16-12.16-31.36 0-42.88 12.16-12.16 31.36-12.16 42.88 0l193.28 193.28C384.64 789.76 384.64 808.96 373.12 821.12zM858.24 232.96l-132.48-133.12c-48.64-48.64-128-48.64-177.28 0L475.52 172.8l309.76 309.76 72.32-72.96C907.52 360.96 907.52 281.6 858.24 232.96z" p-id="42060"></path></svg>